<svg xmlns="http://www.w3.org/2000/svg" width="472" height="364" fill="none" viewBox="0 0 472 364">
    <g clip-path="url(#clip0)">
        <g clip-path="url(#clip1)">
            <rect width="474" height="364" fill="#D3F5FF" rx="8"/>
            <path stroke="#0B7D99" stroke-width="2" d="M196.563-204.35c-97.113-30.73-151.56 23.224-171.682 84.611C4.759-58.352 31.098 25.367 15.72 84.206c-15.378 58.84-73.846 87.717-73.846 87.717" opacity=".08"/>
            <path stroke="#0B7D99" stroke-width="2" d="M209.36-87.192C112.247-117.92 57.8-63.968 37.678-2.58c-20.122 61.387 6.217 145.105-9.16 203.945-15.378 58.839-73.846 87.716-73.846 87.716" opacity=".08"/>
            <path stroke="#0B7D99" stroke-width="2" d="M183.413-102.658C84.228-88.751 45.674-13.65 41.357 53.295 37.039 120.24 82 187.745 81.559 250.182c-.442 62.436-48.806 115.606-48.806 115.606M710.594-156.869c-148.856-47.102-232.313 35.598-263.156 129.693-30.843 94.095 9.53 222.42-14.041 312.609-23.571 90.19-113.191 134.452-113.191 134.452" opacity=".08"/>
            <path stroke="#0B7D99" stroke-width="2" d="M630.563 41.307c-97.113-30.73-151.56 23.224-171.682 84.611-20.122 61.387 6.217 145.106-9.161 203.945-15.377 58.84-73.845 87.717-73.845 87.717" opacity=".08"/>
        </g>
        <path fill="#02539A" fill-rule="evenodd" d="M239.593 277.847l-51.646-51.263 28.544-29.018 80.508 80.281h-57.406z" clip-rule="evenodd"/>
        <path fill="#45D1FD" fill-opacity=".85" fill-rule="evenodd" d="M187.311 226.624l51.187-51.144h57.545l-79.631 79.563-29.101-28.419z" clip-rule="evenodd"/>
        <path fill="#45D1FD" fill-rule="evenodd" d="M143 182.012l29.062 29.017L296.043 87.153h-57.844L143 182.012z" clip-rule="evenodd"/>
    </g>
    <defs>
        <clipPath id="clip0">
            <path fill="#fff" d="M0 8c0-4.418 3.582-8 8-8h456c4.418 0 8 3.582 8 8v348c0 4.418-3.582 8-8 8H8c-4.418 0-8-3.582-8-8V8z"/>
        </clipPath>
        <clipPath id="clip1">
            <path fill="#fff" d="M0 0H474V364H0z"/>
        </clipPath>
    </defs>
</svg>
